<?xml version="1.0" encoding="UTF-8"?>
<svg version="1.1" xmlns="http://www.w3.org/2000/svg" width="132" height="24">
<path d="M0 0 C2.31 0 4.62 0 7 0 C7 1.98 7 3.96 7 6 C8.65 6 10.3 6 12 6 C12.495 7.485 12.495 7.485 13 9 C13.433125 8.525625 13.86625 8.05125 14.3125 7.5625 C17.47124744 4.63773385 20.85696685 4.7754038 25 4.8515625 C27.74525834 5.05531214 29.64988934 5.54846106 32 7 C34.35086231 11.30991423 34.23606624 15.53237985 34.125 20.3125 C34.11597656 21.05306641 34.10695313 21.79363281 34.09765625 22.55664062 C34.07424213 24.37123467 34.03837615 26.18566071 34 28 C33.35933594 27.98839844 32.71867187 27.97679688 32.05859375 27.96484375 C27.96680801 27.92215746 24.17813366 27.97126876 20.125 28.625 C16.87570787 29.01491506 15.66022436 28.80895257 13 27 C12.34 27.66 11.68 28.32 11 29 C7.52559567 29.3217041 4.9662554 29.46776321 1.7890625 27.9296875 C-0.90211141 25.02698027 -0.39198523 22.68159746 -0.25 18.8125 C-0.21390625 17.54019531 -0.1778125 16.26789062 -0.140625 14.95703125 C-0.09421875 13.98121094 -0.0478125 13.00539063 0 12 C-1.32 12 -2.64 12 -4 12 C-3.505 19.92 -3.505 19.92 -3 28 C-4.505625 27.979375 -6.01125 27.95875 -7.5625 27.9375 C-10.82816309 27.91904993 -13.57371719 28.1034572 -16.8125 28.6875 C-20.64109528 29.06285248 -21.96783785 28.25246331 -25 26 C-25.66 25.67 -26.32 25.34 -27 25 C-27.433125 25.474375 -27.86625 25.94875 -28.3125 26.4375 C-31.40017998 29.29646295 -34.8575344 29.34130244 -38.93359375 29.28125 C-42.3946086 28.8101856 -44.42389628 27.26942471 -47 25 C-49.4917577 21.20819481 -49.21194884 17.50816221 -48.6171875 13.15625 C-47.65585931 9.79768571 -45.69615352 8.10431494 -43 6 C-39.81129961 4.40564981 -36.4702942 4.61367166 -33 5 C-30.08072396 6.3961755 -28.27797004 7.72202996 -26 10 C-25.875 12.625 -25.875 12.625 -26 15 C-29.375 15.1875 -29.375 15.1875 -33 15 C-33.66 14.01 -34.32 13.02 -35 12 C-37.58380177 11.74969023 -37.58380177 11.74969023 -40 12 C-40.11320856 17.08303686 -40.11320856 17.08303686 -39 22 C-36.52733235 21.65555119 -36.52733235 21.65555119 -34 21 C-33.67 20.34 -33.34 19.68 -33 19 C-31.9275 18.87625 -30.855 18.7525 -29.75 18.625 C-25.96127846 18.32926916 -25.96127846 18.32926916 -23.625 15.9375 C-19.85746824 13.15670275 -16.53206942 13.64454358 -12 14 C-12.495 12.515 -12.495 12.515 -13 11 C-14.32 11 -15.64 11 -17 11 C-17 11.66 -17 12.32 -17 13 C-19.64 13 -22.28 13 -25 13 C-24.4376049 9.73810844 -23.5859495 8.08865152 -21 6 C-17.29661796 4.76553932 -13.85339582 4.55018726 -10 5 C-7 6.5 -7 6.5 -5 8 C-4.67 7.34 -4.34 6.68 -4 6 C-2.68 6 -1.36 6 0 6 C0 4.02 0 2.04 0 0 Z M20 11 C20 11.66 20 12.32 20 13 C15.71 12.67 11.42 12.34 7 12 C7 15.3 7 18.6 7 22 C8.32 22.33 9.64 22.66 11 23 C11.2475 21.88625 11.495 20.7725 11.75 19.625 C12.53515625 17.69140625 12.53515625 17.69140625 14 16 C17.95018395 14.74776482 21.87789664 14.31315204 26 14 C25.34 12.68 24.68 11.36 24 10 C21.9254644 9.8509288 21.9254644 9.8509288 20 11 Z M-18 19 C-18 20.32 -18 21.64 -18 23 C-17.01 23.33 -16.02 23.66 -15 24 C-14.01 23.34 -13.02 22.68 -12 22 C-12 21.01 -12 20.02 -12 19 C-13.98 19 -15.96 19 -18 19 Z M20 19 C19.67 20.32 19.34 21.64 19 23 C19.99 23.33 20.98 23.66 22 24 C24.23024131 22.76486718 24.23024131 22.76486718 26 21 C26 20.34 26 19.68 26 19 C24.02 19 22.04 19 20 19 Z " fill="#0F1727" transform="translate(128,5)"/>
<path d="M0 0 C7.06226995 4.94233456 14.59693249 11.56886498 18.5 19.375 C18.75 22.75 18.75 22.75 18.5 25.375 C14.88019635 26.18945582 12.48964855 26.37289462 8.8125 25.625 C3.91511969 24.8679622 0.53479512 26.96046568 -3.77734375 29.08984375 C-11.1570939 32.57325523 -18.53361317 33.14786643 -26.5 31.375 C-31.42272007 29.41531844 -35.24689481 26.69723 -39.0625 23.0625 C-41.70515554 20.63645557 -43.27902635 20.01140268 -46.875 20.0625 C-48.07125 20.165625 -49.2675 20.26875 -50.5 20.375 C-50.83 20.045 -51.16 19.715 -51.5 19.375 C-51.35851256 11.45170312 -48.16169825 6.31047008 -42.828125 0.578125 C-30.37037477 -10.96529494 -13.43682762 -8.24000579 0 0 Z M-38 5.125 C-38.6084375 5.63546875 -39.216875 6.1459375 -39.84375 6.671875 C-41.58235152 8.45968222 -42.51089857 10.10006671 -43.5 12.375 C-41.52 13.365 -39.54 14.355 -37.5 15.375 C-36.85309078 13.7712669 -36.20751236 12.16699694 -35.5625 10.5625 C-35.20285156 9.66917969 -34.84320313 8.77585937 -34.47265625 7.85546875 C-33.76386514 6.0479091 -33.1139753 4.21692591 -32.5 2.375 C-35.1999944 2.375 -35.96966032 3.38716689 -38 5.125 Z M-24.5 5.375 C-26.84522935 8.26012978 -26.84522935 8.26012978 -26.375 11.875 C-25.7862745 15.30771741 -25.7862745 15.30771741 -23.9375 17.25 C-20.52100537 18.82684368 -17.2615912 19.40583271 -13.5 19.375 C-11.0762741 18.58714647 -11.0762741 18.58714647 -9.5 17.375 C-9.875 20.3125 -9.875 20.3125 -10.5 23.375 C-11.16 23.705 -11.82 24.035 -12.5 24.375 C-7.29468056 23.96405373 -3.46990729 21.97949938 1.03515625 19.53125 C3.53922466 18.35659984 5.77712627 17.80211745 8.5 17.375 C4.82167983 12.84884007 1.08913637 8.98075001 -3.5 5.375 C-5.48 6.365 -5.48 6.365 -7.5 7.375 C-7.5 8.035 -7.5 8.695 -7.5 9.375 C-8.9577353 9.710939 -10.41621106 10.04366624 -11.875 10.375 C-12.68710937 10.560625 -13.49921875 10.74625 -14.3359375 10.9375 C-16.5 11.375 -16.5 11.375 -18.5 11.375 C-18.005 10.611875 -17.51 9.84875 -17 9.0625 C-15.25631692 6.45136249 -15.25631692 6.45136249 -15.5 3.375 C-19.41565932 1.77973139 -21.2112233 2.95169085 -24.5 5.375 Z " fill="#3FACD0" transform="translate(52.5,11.625)"/>
<path d="M0 0 C2.8215785 2.30181404 4.81631693 4.23381664 5.203125 7.953125 C5.3072418 13.05484828 4.97403 16.64517036 2 21 C-0.0788313 22.77085629 -1.32845905 23.03737944 -4.03515625 22.88671875 C-6.03139841 22.65083123 -8.01721923 22.33046346 -10 22 C-10.33 25.3 -10.66 28.6 -11 32 C-13.64 32 -16.28 32 -19 32 C-19 28.7 -19 25.4 -19 22 C-20.2375 22.0825 -21.475 22.165 -22.75 22.25 C-26.10506698 22.2737948 -26.75447904 22.19641677 -29.5 20 C-29.995 19.34 -30.49 18.68 -31 18 C-31.350625 18.66 -31.70125 19.32 -32.0625 20 C-34 22 -34 22 -37.6875 22.25 C-38.780625 22.1675 -39.87375 22.085 -41 22 C-39.97918309 19.25164679 -38.9593938 16.93984267 -37.3125 14.5 C-35.80355967 12.11984401 -35.80355967 12.11984401 -36.0625 9.625 C-37.31396714 6.120892 -39.06687665 3.18029971 -41 0 C-37.96663814 -0.22893297 -35.02534949 -0.36475845 -32 0 C-29.9375 2 -29.9375 2 -29 4 C-28.505 3.01580078 -28.505 3.01580078 -28 2.01171875 C-26 0 -26 0 -22.3125 -0.35546875 C-20.87435608 -0.31964782 -19.43661216 -0.26290936 -18 -0.1875 C-11.74114816 0.04080331 -6.122906 -1.39645225 0 0 Z M-20 1 C-22.5472476 4.26923817 -24.96205966 7.40650569 -25.0625 11.625 C-23.69194926 14.68858401 -22.00155597 17.31040916 -20 20 C-19.67 20 -19.34 20 -19 20 C-19 13.73 -19 7.46 -19 1 C-19.33 1 -19.66 1 -20 1 Z M-11 7 C-11.43827201 8.90457929 -11.43827201 8.90457929 -11.3125 11 C-11.30863281 11.70125 -11.30476563 12.4025 -11.30078125 13.125 C-11.14912946 15.2416577 -11.14912946 15.2416577 -9 17 C-6.42459787 16.83492354 -6.42459787 16.83492354 -4 16 C-2.61449803 13.22899606 -2.8122533 11.0665294 -3 8 C-3.66 7.01 -4.32 6.02 -5 5 C-8.18490007 4.7226499 -8.18490007 4.7226499 -11 7 Z " fill="#101727" transform="translate(301,11)"/>
<path d="M0 0 C2.31 0 4.62 0 7 0 C7 1.98 7 3.96 7 6 C8.65 6 10.3 6 12 6 C12 7.98 12 9.96 12 12 C10.35 12 8.7 12 7 12 C7.33 15.63 7.66 19.26 8 23 C9.32 23 10.64 23 12 23 C12.042721 24.66611905 12.04063832 26.33382885 12 28 C11 29 11 29 7.6875 29.25 C3.74978336 28.98303616 2.62314404 28.84126105 0 26 C-0.390625 22.64453125 -0.390625 22.64453125 -0.25 18.8125 C-0.21390625 17.54019531 -0.1778125 16.26789062 -0.140625 14.95703125 C-0.09421875 13.98121094 -0.0478125 13.00539063 0 12 C-0.99 12.33 -1.98 12.66 -3 13 C-7.24674388 13.23164058 -10.35602463 13.33214424 -14 11 C-14.33 11.33 -14.66 11.66 -15 12 C-13.82630859 12.39832031 -13.82630859 12.39832031 -12.62890625 12.8046875 C-11.11103516 13.33449219 -11.11103516 13.33449219 -9.5625 13.875 C-8.55316406 14.22304688 -7.54382813 14.57109375 -6.50390625 14.9296875 C-4 16 -4 16 -3 18 C-2.53882353 24.34117647 -2.53882353 24.34117647 -4.3125 26.875 C-8.49572925 29.6638195 -13.16962958 29.46608837 -18 29 C-21 27.8125 -21 27.8125 -23 26 C-23.8125 23.3125 -23.8125 23.3125 -24 21 C-20.625 20.875 -20.625 20.875 -17 21 C-16.34 21.66 -15.68 22.32 -15 23 C-14.01 23 -13.02 23 -12 23 C-12 22.34 -12 21.68 -12 21 C-12.62648437 20.80664062 -13.25296875 20.61328125 -13.8984375 20.4140625 C-14.71570313 20.15367188 -15.53296875 19.89328125 -16.375 19.625 C-17.18710938 19.36976562 -17.99921875 19.11453125 -18.8359375 18.8515625 C-21 18 -21 18 -23 16 C-23.56321839 9.8045977 -23.56321839 9.8045977 -21.6875 7.125 C-17.78712948 4.52475299 -13.52264328 4.59553597 -9 5 C-7.65909241 5.65129797 -6.32407669 6.31513275 -5 7 C-2.31006947 6.69621948 -2.31006947 6.69621948 0 6 C0 4.02 0 2.04 0 0 Z " fill="#101727" transform="translate(218,5)"/>
<path d="M0 0 C2.64 0 5.28 0 8 0 C8 3.63 8 7.26 8 11 C10.31 11 12.62 11 15 11 C17.475 16.445 17.475 16.445 20 22 C21.98 16.555 21.98 16.555 24 11 C26.31 11 28.62 11 31 11 C30.02660528 16.42829184 28.1361993 21.35769731 26.1875 26.5 C25.84396484 27.43714844 25.50042969 28.37429687 25.14648438 29.33984375 C20.91095731 40.54452134 20.91095731 40.54452134 16 43 C13.6670134 43.04022391 11.33293334 43.04320247 9 43 C9 41.02 9 39.04 9 37 C11.475 36.505 11.475 36.505 14 36 C15.46523565 31.49559605 13.8601868 28.41419926 12.0625 24.25 C11.051875 21.8575 10.04125 19.465 9 17 C8.67 22.28 8.34 27.56 8 33 C5.36 33 2.72 33 0 33 C0 22.11 0 11.22 0 0 Z " fill="#0F1727" transform="translate(164,0)"/>
<path d="M0 0 C0.33 0.99 0.66 1.98 1 3 C1.845625 2.505 2.69125 2.01 3.5625 1.5 C7.48083062 -0.209817 9.76813363 -0.5289833 14 0 C19.53846154 3.07692308 19.53846154 3.07692308 21 6 C21.13415472 8.6723621 21.04318541 11.32250488 21 14 C16.38 14 11.76 14 7 14 C7.33 14.99 7.66 15.98 8 17 C11.71599191 17.20086443 12.77208445 17.1519437 16 15 C18.475 16.485 18.475 16.485 21 18 C20.08486681 20.28783297 19.34515354 21.73449728 17.375 23.25 C12.54463084 24.77537974 8.40936726 24.4520612 3.6875 22.9375 C0.09362463 20.34656659 -0.79907993 18.23854142 -2 14 C-1.6875 10.0625 -1.6875 10.0625 -1 7 C-2.65 7.66 -4.3 8.32 -6 9 C-6.33 13.62 -6.66 18.24 -7 23 C-9.64 23 -12.28 23 -15 23 C-15 15.74 -15 8.48 -15 1 C-12.03 1 -9.06 1 -6 1 C-4 0 -4 0 0 0 Z M8 6 C7.67 6.99 7.34 7.98 7 9 C9.31 9 11.62 9 14 9 C13.34 8.01 12.68 7.02 12 6 C10.68 6 9.36 6 8 6 Z " fill="#0F1727" transform="translate(356,10)"/>
<path d="M0 0 C2.32424543 1.91408447 3.24836743 2.88102068 4.125 5.75 C4.125 8.06 4.125 10.37 4.125 12.75 C-0.495 13.08 -5.115 13.41 -9.875 13.75 C-9.545 14.41 -9.215 15.07 -8.875 15.75 C-8.18792969 15.64300781 -7.50085938 15.53601563 -6.79296875 15.42578125 C-5.89191406 15.30589844 -4.99085938 15.18601562 -4.0625 15.0625 C-3.16917969 14.93488281 -2.27585938 14.80726562 -1.35546875 14.67578125 C1.125 14.75 1.125 14.75 2.94921875 16.23046875 C3.33722656 16.73191406 3.72523438 17.23335937 4.125 17.75 C0.56881062 21.55144382 -1.39700447 22.62885283 -6.6875 23.0625 C-11.0529473 23.00622352 -13.53350427 21.6141392 -16.875 18.75 C-19.22281141 15.76187638 -19.29325081 12.53088812 -19.1953125 8.78125 C-18.55279482 4.70674762 -16.30357538 1.87245209 -13.125 -0.625 C-8.42901585 -1.92944004 -4.41286588 -1.91863734 0 0 Z M-8.875 4.75 C-9.865 6.235 -9.865 6.235 -10.875 7.75 C-8.565 7.75 -6.255 7.75 -3.875 7.75 C-4.205 6.76 -4.535 5.77 -4.875 4.75 C-6.195 4.75 -7.515 4.75 -8.875 4.75 Z " fill="#101727" transform="translate(256.875,11.25)"/>
<path d="M0 0 C3.75212276 2.01502889 5.63644095 3.45466142 8 7 C8.66535838 11.06919178 8.92277334 15.22543589 6.984375 18.953125 C4.8540259 21.59681123 3.23432752 22.92189083 0 24 C-5.35234642 24.34531267 -8.65531768 24.47574585 -13 21 C-16.37075466 17.21097651 -16.56427283 14.41514254 -16.42578125 9.48046875 C-15.72867414 5.41934018 -14.02589869 3.74441974 -11 1 C-7.27599129 -0.24133624 -3.86824 -0.54111486 0 0 Z M-6 6 C-8.15705515 7.7564331 -8.15705515 7.7564331 -8.265625 9.875 C-8.26046875 10.57625 -8.2553125 11.2775 -8.25 12 C-8.25515625 12.70125 -8.2603125 13.4025 -8.265625 14.125 C-8.15705515 16.2435669 -8.15705515 16.2435669 -6 18 C-2.69316534 17.71016731 -2.69316534 17.71016731 0 16 C0.22918242 11.98342857 0.22918242 11.98342857 0 8 C-0.66 7.34 -1.32 6.68 -2 6 C-3.32 6 -4.64 6 -6 6 Z " fill="#0F1727" transform="translate(332,10)"/>
<path d="M0 0 C2.64 0 5.28 0 8 0 C8 10.89 8 21.78 8 33 C5.36 33 2.72 33 0 33 C0 22.11 0 11.22 0 0 Z " fill="#0F1728" transform="translate(307,0)"/>
<path d="M0 0 C0 2.31 0 4.62 0 7 C-1.65 7.66 -3.3 8.32 -5 9 C-5.33 13.62 -5.66 18.24 -6 23 C-8.64 23 -11.28 23 -14 23 C-14 15.74 -14 8.48 -14 1 C-11.03 1 -8.06 1 -5 1 C-3 0 -3 0 0 0 Z " fill="#101728" transform="translate(392,10)"/>
<path d="M0 0 C2.15502531 3.23253796 2.46856135 4.25150923 2 8 C0.9375 9.8125 0.9375 9.8125 -1 11 C-4.6875 11.1875 -4.6875 11.1875 -8 11 C-8.66 9.68 -9.32 8.36 -10 7 C-10.66 7 -11.32 7 -12 7 C-12.66 8.32 -13.32 9.64 -14 11 C-16.97 11 -19.94 11 -23 11 C-23 7.37 -23 3.74 -23 0 C-21.576875 -0.061875 -20.15375 -0.12375 -18.6875 -0.1875 C-17.48673828 -0.23970703 -17.48673828 -0.23970703 -16.26171875 -0.29296875 C-13.52148416 0.06198392 -12.70828921 0.89366282 -11 3 C-10.54625 2.525625 -10.0925 2.05125 -9.625 1.5625 C-6.38163647 -1.55611878 -4.23544107 -1.05886027 0 0 Z M-19 2 C-19 3.98 -19 5.96 -19 8 C-17.68 7.67 -16.36 7.34 -15 7 C-15 5.68 -15 4.36 -15 3 C-16.32 2.67 -17.64 2.34 -19 2 Z M-7 3 C-7 4.65 -7 6.3 -7 8 C-5.35 8 -3.7 8 -2 8 C-1.67 7.01 -1.34 6.02 -1 5 C-1.97850195 3.97895449 -2.97980427 2.9793879 -4 2 C-5.2236068 1.9254644 -5.2236068 1.9254644 -7 3 Z " fill="#3FACD0" transform="translate(326,49)"/>
<path d="M0 0 C2.97 0 5.94 0 9 0 C9.9004793 3.6019172 10.16315639 6.32898129 10 10 C9 11 9 11 6.93359375 11.09765625 C3.46679688 11.04882812 3.46679688 11.04882812 0 11 C0 7.37 0 3.74 0 0 Z M3 2 C3 2.66 3 3.32 3 4 C3.99 4 4.98 4 6 4 C6 3.34 6 2.68 6 2 C5.01 2 4.02 2 3 2 Z M3 7 C7 8 7 8 7 8 Z " fill="#3FACD1" transform="translate(261,49)"/>
<path d="M0 0 C0.99 0 1.98 0 3 0 C3 2.64 3 5.28 3 8 C4.98 8 6.96 8 9 8 C9 5.36 9 2.72 9 0 C10.32 0 11.64 0 13 0 C13 3.63 13 7.26 13 11 C8.71 11 4.42 11 0 11 C0 7.37 0 3.74 0 0 Z " fill="#3FACD0" transform="translate(289,49)"/>
<path d="M0 0 C2 2 2 2 2.25 5.5 C2 9 2 9 0 11 C-1.875 11.30078125 -1.875 11.30078125 -4 11.3125 C-4.70125 11.32925781 -5.4025 11.34601562 -6.125 11.36328125 C-6.74375 11.24339844 -7.3625 11.12351562 -8 11 C-10.31361802 7.52957297 -10.51020728 6.08165827 -10 2 C-6.94783427 -1.63912068 -4.35383535 -1.23043173 0 0 Z M-4 2 C-4.99 2.66 -5.98 3.32 -7 4 C-6.67 5.32 -6.34 6.64 -6 8 C-4.35 7.67 -2.7 7.34 -1 7 C-1 5.68 -1 4.36 -1 3 C-1.99 2.67 -2.98 2.34 -4 2 Z " fill="#3FACD0" transform="translate(378,49)"/>
<path d="M0 0 C4.95 0 9.9 0 15 0 C15 3.63 15 7.26 15 11 C13.68 11 12.36 11 11 11 C11 8.03 11 5.06 11 2 C9.68 2 8.36 2 7 2 C7 4.97 7 7.94 7 11 C6.01 11 5.02 11 4 11 C4 8.03 4 5.06 4 2 C2.68 2 1.36 2 0 2 C0 1.34 0 0.68 0 0 Z " fill="#3FACD1" transform="translate(352,49)"/>
<path d="M0 0 C2.475 0.495 2.475 0.495 5 1 C5.66 1.99 6.32 2.98 7 4 C7.33 2.68 7.66 1.36 8 0 C8.99 0 9.98 0 11 0 C11 3.63 11 7.26 11 11 C6.70574125 9.92643531 6.25259529 9.4915227 4 6 C3.67 7.65 3.34 9.3 3 11 C2.01 11 1.02 11 0 11 C0 7.37 0 3.74 0 0 Z " fill="#3FABD0" transform="translate(329,49)"/>
<path d="M0 0 C1.32 0 2.64 0 4 0 C5.75 2 5.75 2 7 4 C7.33 2.68 7.66 1.36 8 0 C8.66 0 9.32 0 10 0 C10 3.63 10 7.26 10 11 C9.01 11 8.02 11 7 11 C5.3125 9 5.3125 9 4 7 C3.67 8.32 3.34 9.64 3 11 C2.01 11 1.02 11 0 11 C0 7.37 0 3.74 0 0 Z " fill="#3FABD0" transform="translate(382,49)"/>
<path d="M0 0 C1.65 0.33 3.3 0.66 5 1 C5.99 4.3 6.98 7.6 8 11 C5.0703125 10.56054688 5.0703125 10.56054688 2.140625 10.12109375 C-0.12638056 9.99285073 -1.83849957 10.34278703 -4 11 C-3.52269162 9.5410574 -3.04308958 8.08286504 -2.5625 6.625 C-2.29566406 5.81289063 -2.02882813 5.00078125 -1.75390625 4.1640625 C-1 2 -1 2 0 0 Z " fill="#3FABD0" transform="translate(345,49)"/>
<path d="M0 0 C2.475 0.495 2.475 0.495 5 1 C5 1.66 5 2.32 5 3 C5.4125 2.484375 5.825 1.96875 6.25 1.4375 C6.8275 0.963125 7.405 0.48875 8 0 C10.1875 0.3125 10.1875 0.3125 12 1 C11.2884375 2.0828125 11.2884375 2.0828125 10.5625 3.1875 C9.05847097 5.89475226 8.43400818 7.96194275 8 11 C7.01 11 6.02 11 5 11 C4.54625 9.9275 4.0925 8.855 3.625 7.75 C2.49911463 5.11937683 1.32079794 2.53999604 0 0 Z " fill="#3FABD0" transform="translate(271,49)"/>
</svg>
