<?xml version="1.0" encoding="utf-8"?>
<!-- Generator: Adobe Illustrator 24.0.1, SVG Export Plug-In . SVG Version: 6.00 Build 0)  -->
<svg version="1.1" id="Layer_1" xmlns="http://www.w3.org/2000/svg" xmlns:xlink="http://www.w3.org/1999/xlink" x="0px" y="0px"
	 viewBox="0 0 205 37" style="enable-background:new 0 0 205 37;" xml:space="preserve">
<style type="text/css">
	.st0{fill-rule:evenodd;clip-rule:evenodd;fill:#3FACD1;}
	.st1{fill:#3FACD1;}
</style>
<g>
	<path class="st0" d="M6.2,16.6c-0.6-0.3-1.3-0.5-2-0.6c1.3-2.7,3.9-5.8,8.2-7c-0.4,0.4-0.9,0.8-1.3,1.2c-1.3,1.4-2.2,3.1-2.7,5
		c-0.3,0.9-0.4,1.8-0.4,2.6C7.5,17.4,6.9,16.9,6.2,16.6z M18.9,22.7c0.3,0,0.5,0,0.8-0.1c3.4-0.5,6.6-2.2,9.1-3.6
		c0.5-0.3,1.1-0.4,1.5-0.4c0.5,0,1,0.1,1.4,0.1c0.3,0.1,0.6,0.1,0.9,0.2c-1.4-1.8-3.2-3.9-5.5-5.8c-0.9-0.7-1.8-1.4-2.8-2
		c0,0.1,0,0.2-0.1,0.2c-0.2,0.9-0.7,1.6-1.3,2.2c-0.6,0.6-1.4,1.1-2.1,1.3s-1.5,0.3-2.1,0.1c-0.3-0.1-0.5-0.2-0.6-0.4
		C18,14.6,18,14.4,18,14.2c0-0.1,0.1-0.2,0.2-0.3c0.7-0.8,1.1-1.4,1.3-1.9c0.1-0.4,0.1-0.7-0.1-1c-0.2-0.3-0.5-0.5-0.9-0.6
		c-0.7-0.2-1.4-0.1-2.1,0.1c-0.7,0.3-1.3,0.7-1.8,1.4c-0.5,0.6-0.9,1.3-1.1,2.1c-0.3,1.1-0.2,2.2,0.4,3.1c0.6,0.9,1.7,1.6,3.2,2
		c0.8,0.2,1.6,0.3,2.4,0.3c0.8,0,1.5-0.3,2-0.7c0.1-0.1,0.3-0.1,0.4-0.1c0.2,0,0.4,0.2,0.5,0.4c0.1,0.2-0.2,1.3-0.9,1.9
		C20.1,22.1,19.5,22.5,18.9,22.7z M1.6,19.5c0.1,0,0.3,0,0.4,0c0.4,0,0.8-0.1,1.1-0.4c0.4-0.4,0.9-0.5,1.8,0s1.9,1.3,2.5,2l0,0l0,0
		c4,4,8.5,4.8,12.6,4.3c4-0.6,7.6-2.5,10.1-4c0,0,0.1,0,0.1,0c0.2,0,0.4,0,0.7,0.1c0.6,0.1,1.2,0.3,1.9,0.6l0,0l0,0
		c0.1,0,0.2,0,0.2,0.1c0.3,0.1,0.7,0.2,1,0.3c0.3,0.1,0.7,0.2,1.2,0.1c0.3,0,0.7-0.1,1-0.5c0.4-0.4,0.5-0.9,0.5-1.2
		c0-0.6-0.3-1.1-0.5-1.4c-1.4-2.3-4-5.7-7.5-8.5c-3.5-2.8-7.9-5.2-12.9-5.2c-10,0-14.4,8.1-15.4,12C0.4,18.6,0.8,19.3,1.6,19.5z"/>
	<path class="st1" d="M197.3,20.3V9h3.6l0,1.4h0.1c0.3-0.5,0.6-0.9,1.1-1.2c0.5-0.3,1-0.5,1.6-0.5c0.2,0,0.4,0,0.6,0.1
		c0.2,0,0.3,0.1,0.4,0.1v2.9c-0.1-0.1-0.3-0.1-0.5-0.1s-0.4,0-0.6,0c-0.5,0-1,0.2-1.4,0.5c-0.4,0.3-0.8,0.7-1,1.2v7L197.3,20.3
		L197.3,20.3z"/>
	<path class="st1" d="M184.9,14.8v-0.4c0-1.8,0.6-3.2,1.6-4.2c1.1-1.1,2.5-1.6,4.3-1.6s3.1,0.5,4.1,1.5s1.5,2.4,1.5,4.1v1.1h-9.3v-2
		h5.8v-0.2c0-0.6-0.2-1-0.5-1.4c-0.3-0.4-0.8-0.6-1.5-0.6c-0.8,0-1.3,0.3-1.7,0.8c-0.4,0.5-0.6,1.2-0.6,2.1v0.8c0,1,0.2,1.7,0.6,2.3
		c0.4,0.5,1,0.8,1.8,0.8c0.6,0,1.1-0.1,1.5-0.4c0.4-0.3,0.7-0.6,1-1l2.9,1.2c-0.4,0.8-1,1.5-1.9,2c-0.9,0.5-2,0.8-3.4,0.8
		c-1.9,0-3.4-0.5-4.5-1.6C185.4,18,184.9,16.6,184.9,14.8z"/>
	<path class="st1" d="M177.9,20.3V9h3.6l0,1.4h0.1c0.3-0.5,0.6-0.9,1.1-1.2c0.5-0.3,1-0.5,1.6-0.5c0.2,0,0.4,0,0.6,0.1
		c0.2,0,0.3,0.1,0.4,0.1v2.9c-0.1-0.1-0.3-0.1-0.5-0.1s-0.4,0-0.6,0c-0.5,0-1,0.2-1.4,0.5c-0.4,0.3-0.8,0.7-1,1.2v7L177.9,20.3
		L177.9,20.3z"/>
	<path class="st1" d="M164.7,14.8v-0.4c0-1.8,0.6-3.2,1.7-4.2c1.1-1.1,2.6-1.6,4.4-1.6c1.8,0,3.3,0.5,4.4,1.6
		c1.1,1.1,1.7,2.4,1.7,4.2v0.4c0,1.8-0.6,3.2-1.7,4.2c-1.1,1-2.6,1.6-4.4,1.6s-3.3-0.5-4.4-1.6C165.3,18,164.7,16.6,164.7,14.8z
		 M168.5,14.3v0.7c0,0.9,0.2,1.7,0.6,2.2c0.4,0.5,1,0.8,1.8,0.8c0.8,0,1.4-0.3,1.8-0.8c0.4-0.5,0.6-1.3,0.6-2.2v-0.7
		c0-0.9-0.2-1.7-0.6-2.2c-0.4-0.5-1-0.8-1.8-0.8c-0.8,0-1.4,0.3-1.8,0.8C168.7,12.6,168.5,13.3,168.5,14.3z"/>
	<path class="st1" d="M160.1,20.3V3.1h3.7v17.1L160.1,20.3L160.1,20.3z"/>
	<path class="st1" d="M147.4,25.1V9h3.5l0.1,1.3l0.1,0c0.3-0.4,0.7-0.8,1.3-1.1c0.6-0.3,1.3-0.5,2.1-0.5c1.4,0,2.6,0.5,3.5,1.5
		c0.9,1,1.3,2.4,1.3,4.2v0.4c0,1.8-0.4,3.2-1.3,4.2c-0.9,1-2.1,1.6-3.5,1.6c-0.8,0-1.4-0.1-2-0.4c-0.6-0.3-1-0.6-1.3-1v6L147.4,25.1
		L147.4,25.1z M151,16.4c0.2,0.4,0.4,0.8,0.8,1c0.4,0.3,0.8,0.5,1.4,0.5c0.8,0,1.3-0.3,1.7-0.8c0.4-0.5,0.6-1.3,0.6-2.2v-0.7
		c0-0.9-0.2-1.6-0.6-2.1c-0.4-0.5-0.9-0.8-1.7-0.8c-0.6,0-1,0.1-1.4,0.4c-0.4,0.3-0.6,0.6-0.8,1L151,16.4L151,16.4z"/>
	<path class="st1" d="M135.4,20.3l4.3-6.6l0.8,0l2.9-4.7h3.3l-4.1,6.4l-0.9,0l-3.1,4.9L135.4,20.3L135.4,20.3z M135.6,9h4l3,4.8
		l0.2,0.1l4.3,6.5h-4l-3.1-5l-0.2-0.1L135.6,9z"/>
	<path class="st1" d="M124.2,14.8v-0.4c0-1.8,0.6-3.2,1.6-4.2c1.1-1.1,2.5-1.6,4.3-1.6c1.8,0,3.1,0.5,4.1,1.5c1,1,1.5,2.4,1.5,4.1
		v1.1h-9.3v-2h5.8v-0.2c0-0.6-0.2-1-0.5-1.4c-0.3-0.4-0.8-0.6-1.5-0.6c-0.8,0-1.3,0.3-1.7,0.8c-0.4,0.5-0.6,1.2-0.6,2.1v0.8
		c0,1,0.2,1.7,0.6,2.3c0.4,0.5,1,0.8,1.8,0.8c0.6,0,1.1-0.1,1.5-0.4c0.4-0.3,0.7-0.6,1-1l2.9,1.2c-0.4,0.8-1,1.5-1.9,2
		c-0.9,0.5-2,0.8-3.4,0.8c-1.9,0-3.4-0.5-4.5-1.6C124.8,18,124.2,16.6,124.2,14.8z"/>
	<path class="st1" d="M111.8,11.6V9h7.6v2.7C119.5,11.6,111.8,11.6,111.8,11.6z M113.6,16.8v-7l0.1-0.2V5.8h3.6v10.5
		c0,0.7,0.1,1.1,0.3,1.3c0.2,0.2,0.5,0.3,0.9,0.3c0.2,0,0.4,0,0.5,0c0.2,0,0.4-0.1,0.5-0.1v2.5c-0.2,0.1-0.5,0.1-0.9,0.2
		c-0.4,0.1-0.8,0.1-1.4,0.1c-1.1,0-2-0.3-2.7-0.9C113.9,19.1,113.6,18.1,113.6,16.8z"/>
	<path class="st1" d="M101.3,16.7l3.4,0v0.2c0,0.5,0.2,0.9,0.5,1.1c0.3,0.2,0.8,0.3,1.4,0.3c0.6,0,1-0.1,1.3-0.3
		c0.3-0.2,0.4-0.5,0.4-0.9c0-0.4-0.2-0.6-0.5-0.8c-0.3-0.2-1.1-0.4-2.2-0.6c-1.4-0.3-2.4-0.7-3.1-1.3c-0.6-0.6-1-1.4-1-2.3
		c0-1.1,0.4-2,1.3-2.6c0.9-0.6,2.2-0.9,3.8-0.9c1.6,0,2.8,0.3,3.7,1c0.9,0.6,1.4,1.5,1.4,2.7v0.2h-3.4v-0.2c0-0.4-0.2-0.8-0.4-1
		c-0.3-0.2-0.7-0.3-1.3-0.3c-0.5,0-0.9,0.1-1.2,0.3c-0.2,0.2-0.4,0.4-0.4,0.7c0,0.3,0.2,0.6,0.5,0.8c0.3,0.2,1.1,0.4,2.2,0.6
		c1.4,0.3,2.5,0.7,3.2,1.2c0.7,0.6,1,1.3,1,2.3c0,1.2-0.5,2.2-1.4,2.8c-0.9,0.6-2.2,1-4,1c-1.7,0-3-0.3-4-1
		c-0.9-0.7-1.4-1.6-1.4-2.8L101.3,16.7L101.3,16.7z"/>
	<path class="st1" d="M90.1,25l0-2.5c0.2,0.1,0.5,0.1,0.7,0.1c0.3,0,0.5,0,0.7,0c0.5,0,1-0.2,1.4-0.5c0.4-0.3,0.7-1,1-1.9h-0.1
		L89.4,9h3.6l2.2,6.3c0.1,0.3,0.2,0.5,0.2,0.7c0.1,0.2,0.1,0.4,0.2,0.6h0.1c0.1-0.2,0.1-0.4,0.2-0.6s0.1-0.4,0.2-0.7L98.3,9h3.3
		L97,21.1c-0.6,1.5-1.2,2.5-2,3.2c-0.8,0.6-1.7,1-2.9,1c-0.5,0-0.8,0-1.2-0.1C90.7,25.2,90.4,25.1,90.1,25z"/>
	<path class="st1" d="M85.5,20.3V3.1h3.7v17.1L85.5,20.3L85.5,20.3z"/>
	<path class="st1" d="M72.7,17c0-1.2,0.5-2.1,1.4-2.8c0.9-0.7,2.2-1,3.7-1h2.5v-0.7c0-0.5-0.1-0.9-0.4-1.2c-0.3-0.3-0.7-0.4-1.3-0.4
		c-0.6,0-1.1,0.1-1.3,0.4c-0.3,0.2-0.4,0.6-0.4,1v0.2l-3.5,0v-0.2c0-1.1,0.5-1.9,1.5-2.6c1-0.7,2.3-1,4-1c1.7,0,2.9,0.3,3.8,1
		c0.9,0.6,1.3,1.6,1.3,3v5.1c0,0.5,0,0.9,0.1,1.3c0.1,0.4,0.2,0.8,0.4,1.1v0.2h-3.6c-0.1-0.2-0.2-0.4-0.3-0.7
		c-0.1-0.3-0.1-0.5-0.2-0.8c-0.2,0.4-0.7,0.8-1.3,1.2c-0.7,0.3-1.5,0.5-2.4,0.5c-1.2,0-2.1-0.3-2.8-0.9C73,19,72.7,18.1,72.7,17z
		 M76.3,16.7c0,0.5,0.1,0.9,0.4,1.1c0.3,0.3,0.7,0.4,1.3,0.4c0.6,0,1.1-0.2,1.6-0.6c0.4-0.4,0.7-0.9,0.7-1.4v-1h-1.7
		c-0.8,0-1.4,0.1-1.7,0.4C76.5,15.8,76.3,16.2,76.3,16.7z"/>
	<path class="st1" d="M64.9,11.6V9h7.6v2.7C72.5,11.6,64.9,11.6,64.9,11.6z M66.6,16.8v-7l0.1-0.2V5.8h3.6v10.5
		c0,0.7,0.1,1.1,0.3,1.3c0.2,0.2,0.5,0.3,0.9,0.3c0.2,0,0.4,0,0.5,0c0.2,0,0.4-0.1,0.5-0.1v2.5c-0.2,0.1-0.5,0.1-0.9,0.2
		c-0.4,0.1-0.8,0.1-1.4,0.1c-1.1,0-2-0.3-2.7-0.9C66.9,19.1,66.6,18.1,66.6,16.8z"/>
	<path class="st1" d="M53.3,17c0-1.2,0.5-2.1,1.4-2.8c0.9-0.7,2.2-1,3.7-1h2.5v-0.7c0-0.5-0.1-0.9-0.4-1.2c-0.3-0.3-0.7-0.4-1.3-0.4
		c-0.6,0-1.1,0.1-1.3,0.4c-0.3,0.2-0.4,0.6-0.4,1v0.2l-3.5,0v-0.2c0-1.1,0.5-1.9,1.5-2.6c1-0.7,2.3-1,4-1c1.7,0,2.9,0.3,3.8,1
		c0.9,0.6,1.3,1.6,1.3,3v5.1c0,0.5,0,0.9,0.1,1.3c0.1,0.4,0.2,0.8,0.4,1.1v0.2h-3.6c-0.1-0.2-0.2-0.4-0.3-0.7
		C61.1,19.3,61,19,61,18.8c-0.2,0.4-0.7,0.8-1.3,1.2s-1.5,0.5-2.4,0.5c-1.2,0-2.1-0.3-2.8-0.9C53.6,19,53.3,18.1,53.3,17z
		 M56.9,16.7c0,0.5,0.1,0.9,0.4,1.1c0.3,0.3,0.7,0.4,1.3,0.4c0.6,0,1.1-0.2,1.6-0.6c0.5-0.4,0.7-0.9,0.7-1.4v-1h-1.7
		c-0.8,0-1.4,0.1-1.7,0.4C57.1,15.8,56.9,16.2,56.9,16.7z"/>
	<path class="st1" d="M41.5,14.8v-0.4c0-1.8,0.5-3.2,1.6-4.2c1.1-1,2.5-1.6,4.3-1.6c1.8,0,3.1,0.4,4,1.2c0.9,0.8,1.4,1.9,1.5,3.2
		l0,0.2h-3.6v-0.1c0-0.6-0.2-1-0.5-1.3s-0.8-0.5-1.5-0.5c-0.8,0-1.3,0.3-1.7,0.8s-0.6,1.3-0.6,2.2v0.7c0,0.9,0.2,1.7,0.6,2.2
		c0.4,0.5,1,0.8,1.7,0.8c0.7,0,1.2-0.2,1.5-0.5c0.3-0.4,0.5-0.8,0.5-1.3V16H53v0.2c0,1.3-0.5,2.4-1.5,3.2c-1,0.8-2.3,1.2-4.1,1.2
		c-1.8,0-3.3-0.5-4.3-1.6C42.1,18,41.5,16.6,41.5,14.8z"/>
	<path class="st1" d="M199.1,34.3v-5.7h1.3l2.9,3.7h0v-3.7h1.2v5.7h-1.2l-3.1-3.9h0v3.9H199.1z"/>
	<path class="st1" d="M194.9,34.4c-0.6,0-1.2-0.1-1.6-0.4c-0.4-0.3-0.8-0.6-1.1-1s-0.4-1-0.4-1.5c0-0.6,0.1-1.1,0.4-1.5
		c0.3-0.4,0.6-0.8,1.1-1s1-0.4,1.6-0.4c0.6,0,1.1,0.1,1.6,0.4c0.5,0.2,0.8,0.6,1.1,1c0.3,0.4,0.4,0.9,0.4,1.5c0,0.6-0.1,1.1-0.4,1.5
		c-0.3,0.4-0.6,0.8-1.1,1C196.1,34.3,195.6,34.4,194.9,34.4z M194.9,33.3c0.4,0,0.7-0.1,0.9-0.2s0.5-0.3,0.6-0.6
		c0.1-0.3,0.2-0.6,0.2-1s-0.1-0.7-0.2-1c-0.1-0.3-0.4-0.5-0.6-0.6c-0.3-0.1-0.6-0.2-0.9-0.2c-0.4,0-0.7,0.1-0.9,0.2
		c-0.3,0.1-0.5,0.3-0.6,0.6c-0.1,0.3-0.2,0.6-0.2,1c0,0.4,0.1,0.7,0.2,1c0.1,0.3,0.4,0.5,0.6,0.6C194.3,33.2,194.6,33.3,194.9,33.3z
		"/>
	<path class="st1" d="M189.6,34.3v-5.7h1.2v5.7H189.6z"/>
	<path class="st1" d="M185.5,34.3v-4.6h-2v-1.1h5.2v1.1h-2v4.6H185.5z"/>
	<path class="st1" d="M177.9,34.3l2.3-5.7h1.4l2.3,5.7h-1.3l-1.7-4.4h0l-1.7,4.4H177.9z M179.4,33.3v-1h2.9v1H179.4z"/>
	<path class="st1" d="M171.7,34.3v-5.7h1.3l2.9,3.7h0v-3.7h1.2v5.7h-1.2l-3.1-3.9h0v3.9H171.7z"/>
	<path class="st1" d="M167.5,34.4c-0.6,0-1.2-0.1-1.6-0.4c-0.4-0.3-0.8-0.6-1.1-1s-0.4-1-0.4-1.5c0-0.6,0.1-1.1,0.4-1.5
		c0.3-0.4,0.6-0.8,1.1-1s1-0.4,1.6-0.4c0.6,0,1.1,0.1,1.6,0.4c0.5,0.2,0.8,0.6,1.1,1c0.3,0.4,0.4,0.9,0.4,1.5c0,0.6-0.1,1.1-0.4,1.5
		c-0.3,0.4-0.6,0.8-1.1,1C168.7,34.3,168.1,34.4,167.5,34.4z M167.5,33.3c0.4,0,0.7-0.1,0.9-0.2s0.5-0.3,0.6-0.6
		c0.1-0.3,0.2-0.6,0.2-1s-0.1-0.7-0.2-1c-0.1-0.3-0.4-0.5-0.6-0.6c-0.3-0.1-0.6-0.2-0.9-0.2c-0.4,0-0.7,0.1-0.9,0.2
		c-0.3,0.1-0.5,0.3-0.6,0.6c-0.1,0.3-0.2,0.6-0.2,1c0,0.4,0.1,0.7,0.2,1c0.1,0.3,0.4,0.5,0.6,0.6C166.9,33.2,167.2,33.3,167.5,33.3z
		"/>
	<path class="st1" d="M158.3,34.3v-5.7h2.2c0.6,0,1.2,0.1,1.6,0.3c0.5,0.2,0.9,0.5,1.1,1c0.3,0.4,0.4,0.9,0.4,1.6
		c0,0.6-0.1,1.1-0.4,1.5c-0.3,0.4-0.6,0.8-1.1,1c-0.5,0.2-1.1,0.3-1.7,0.3H158.3z M159.5,33.3h1c0.4,0,0.8-0.1,1.1-0.2
		c0.3-0.1,0.5-0.3,0.7-0.6c0.1-0.3,0.2-0.6,0.2-1c0-0.5-0.1-0.8-0.3-1.1s-0.4-0.4-0.7-0.5c-0.3-0.1-0.6-0.1-1-0.1h-1L159.5,33.3
		L159.5,33.3z"/>
	<path class="st1" d="M155.7,34.3v-5.7h1.2v5.7H155.7z"/>
	<path class="st1" d="M150.5,34.3v-5.7h1.2v4.6h3.1v1.1H150.5z"/>
	<path class="st1" d="M143.8,34.3v-1.9l-2.4-3.8h1.5l1.5,2.5h0l1.5-2.5h1.4l-2.4,3.8v1.9C145,34.3,143.8,34.3,143.8,34.3z"/>
	<path class="st1" d="M136.1,34.3v-5.7h2.9c0.6,0,1.1,0.1,1.4,0.4s0.5,0.6,0.5,1.1c0,0.3-0.1,0.5-0.1,0.7c-0.1,0.2-0.3,0.4-0.5,0.5
		v0c0.3,0.1,0.5,0.2,0.7,0.5c0.2,0.2,0.3,0.5,0.3,0.8c0,0.5-0.2,0.9-0.5,1.3c-0.3,0.3-0.8,0.5-1.5,0.5L136.1,34.3L136.1,34.3z
		 M137.3,33.3h1.6c0.3,0,0.5,0,0.6-0.1c0.2-0.1,0.3-0.3,0.3-0.6c0-0.2-0.1-0.4-0.2-0.5c-0.1-0.1-0.3-0.2-0.6-0.2h-1.7L137.3,33.3
		L137.3,33.3z M137.3,31h1.6c0.2,0,0.4,0,0.6-0.2c0.1-0.1,0.2-0.3,0.2-0.5c0-0.2-0.1-0.4-0.2-0.5c-0.1-0.1-0.3-0.2-0.6-0.2h-1.5
		L137.3,31L137.3,31z"/>
</g>
</svg>
